<svg width="1280" height="720" xmlns="http://www.w3.org/2000/svg" xmlns:xlink="http://www.w3.org/1999/xlink" overflow="hidden"><defs><filter id="fx0" x="-10%" y="-10%" width="120%" height="120%" filterUnits="userSpaceOnUse" primitiveUnits="userSpaceOnUse"><feComponentTransfer color-interpolation-filters="sRGB"><feFuncR type="discrete" tableValues="0 0"/><feFuncG type="discrete" tableValues="0 0"/><feFuncB type="discrete" tableValues="0 0"/><feFuncA type="linear" slope="0.4" intercept="0"/></feComponentTransfer><feGaussianBlur stdDeviation="6.66667 6.66667"/></filter><filter id="fx1" x="-10%" y="-10%" width="120%" height="120%" filterUnits="userSpaceOnUse" primitiveUnits="userSpaceOnUse"><feComponentTransfer color-interpolation-filters="sRGB"><feFuncR type="discrete" tableValues="0 0"/><feFuncG type="discrete" tableValues="0 0"/><feFuncB type="discrete" tableValues="0 0"/><feFuncA type="linear" slope="0.4" intercept="0"/></feComponentTransfer><feGaussianBlur stdDeviation="6.66667 6.66667"/></filter><filter id="fx2" x="-10%" y="-10%" width="120%" height="120%" filterUnits="userSpaceOnUse" primitiveUnits="userSpaceOnUse"><feComponentTransfer color-interpolation-filters="sRGB"><feFuncR type="discrete" tableValues="0 0"/><feFuncG type="discrete" tableValues="0 0"/><feFuncB type="discrete" tableValues="0 0"/><feFuncA type="linear" slope="0.4" intercept="0"/></feComponentTransfer><feGaussianBlur stdDeviation="6.66667 6.66667"/></filter><filter id="fx3" x="-10%" y="-10%" width="120%" height="120%" filterUnits="userSpaceOnUse" primitiveUnits="userSpaceOnUse"><feComponentTransfer color-interpolation-filters="sRGB"><feFuncR type="discrete" tableValues="0 0"/><feFuncG type="discrete" tableValues="0 0"/><feFuncB type="discrete" tableValues="0 0"/><feFuncA type="linear" slope="0.4" intercept="0"/></feComponentTransfer><feGaussianBlur stdDeviation="6.66667 6.66667"/></filter><filter id="fx4" x="-10%" y="-10%" width="120%" height="120%" filterUnits="userSpaceOnUse" primitiveUnits="userSpaceOnUse"><feComponentTransfer color-interpolation-filters="sRGB"><feFuncR type="discrete" tableValues="0 0"/><feFuncG type="discrete" tableValues="0 0"/><feFuncB type="discrete" tableValues="0 0"/><feFuncA type="linear" slope="0.4" intercept="0"/></feComponentTransfer><feGaussianBlur stdDeviation="6.66667 6.66667"/></filter><filter id="fx5" x="-10%" y="-10%" width="120%" height="120%" filterUnits="userSpaceOnUse" primitiveUnits="userSpaceOnUse"><feComponentTransfer color-interpolation-filters="sRGB"><feFuncR type="discrete" tableValues="0 0"/><feFuncG type="discrete" tableValues="0 0"/><feFuncB type="discrete" tableValues="0 0"/><feFuncA type="linear" slope="0.4" intercept="0"/></feComponentTransfer><feGaussianBlur stdDeviation="6.66667 6.66667"/></filter><linearGradient x1="363.5" y1="166" x2="363.5" y2="42" gradientUnits="userSpaceOnUse" spreadMethod="reflect" id="fill6"><stop offset="0" stop-color="#F2F2F2"/><stop offset="0.0416667" stop-color="#F1F1F1"/><stop offset="0.0833333" stop-color="#F1F1F1"/><stop offset="0.125" stop-color="#F1F1F1"/><stop offset="0.166667" stop-color="#F1F1F1"/><stop offset="0.208333" stop-color="#F0F0F0"/><stop offset="0.25" stop-color="#F0F0F0"/><stop offset="0.291667" stop-color="#EFEFEF"/><stop offset="0.333333" stop-color="#EEEEEE"/><stop offset="0.375" stop-color="#EEEEEE"/><stop offset="0.416667" stop-color="#EDEDED"/><stop offset="0.458333" stop-color="#ECECEC"/><stop offset="0.5" stop-color="#EBEBEB"/><stop offset="0.541667" stop-color="#EAEAEA"/><stop offset="0.583333" stop-color="#E8E8E8"/><stop offset="0.625" stop-color="#E7E7E7"/><stop offset="0.666667" stop-color="#E6E6E6"/><stop offset="0.708333" stop-color="#E4E4E4"/><stop offset="0.75" stop-color="#E3E3E3"/><stop offset="0.791667" stop-color="#E1E1E1"/><stop offset="0.833333" stop-color="#E0E0E0"/><stop offset="0.875" stop-color="#DEDEDE"/><stop offset="0.916667" stop-color="#DCDCDC"/><stop offset="0.958333" stop-color="#DADADA"/><stop offset="1" stop-color="#D9D9D9"/></linearGradient><linearGradient x1="1118.5" y1="166" x2="1118.5" y2="42" gradientUnits="userSpaceOnUse" spreadMethod="reflect" id="fill7"><stop offset="0" stop-color="#F2F2F2"/><stop offset="0.0416667" stop-color="#F1F1F1"/><stop offset="0.0833333" stop-color="#F1F1F1"/><stop offset="0.125" stop-color="#F1F1F1"/><stop offset="0.166667" stop-color="#F1F1F1"/><stop offset="0.208333" stop-color="#F0F0F0"/><stop offset="0.25" stop-color="#F0F0F0"/><stop offset="0.291667" stop-color="#EFEFEF"/><stop offset="0.333333" stop-color="#EEEEEE"/><stop offset="0.375" stop-color="#EEEEEE"/><stop offset="0.416667" stop-color="#EDEDED"/><stop offset="0.458333" stop-color="#ECECEC"/><stop offset="0.5" stop-color="#EBEBEB"/><stop offset="0.541667" stop-color="#EAEAEA"/><stop offset="0.583333" stop-color="#E8E8E8"/><stop offset="0.625" stop-color="#E7E7E7"/><stop offset="0.666667" stop-color="#E6E6E6"/><stop offset="0.708333" stop-color="#E4E4E4"/><stop offset="0.75" stop-color="#E3E3E3"/><stop offset="0.791667" stop-color="#E1E1E1"/><stop offset="0.833333" stop-color="#E0E0E0"/><stop offset="0.875" stop-color="#DEDEDE"/><stop offset="0.916667" stop-color="#DCDCDC"/><stop offset="0.958333" stop-color="#DADADA"/><stop offset="1" stop-color="#D9D9D9"/></linearGradient><linearGradient x1="866.5" y1="166" x2="866.5" y2="42" gradientUnits="userSpaceOnUse" spreadMethod="reflect" id="fill8"><stop offset="0" stop-color="#F2F2F2"/><stop offset="0.0416667" stop-color="#F1F1F1"/><stop offset="0.0833333" stop-color="#F1F1F1"/><stop offset="0.125" stop-color="#F1F1F1"/><stop offset="0.166667" stop-color="#F1F1F1"/><stop offset="0.208333" stop-color="#F0F0F0"/><stop offset="0.25" stop-color="#F0F0F0"/><stop offset="0.291667" stop-color="#EFEFEF"/><stop offset="0.333333" stop-color="#EEEEEE"/><stop offset="0.375" stop-color="#EEEEEE"/><stop offset="0.416667" stop-color="#EDEDED"/><stop offset="0.458333" stop-color="#ECECEC"/><stop offset="0.5" stop-color="#EBEBEB"/><stop offset="0.541667" stop-color="#EAEAEA"/><stop offset="0.583333" stop-color="#E8E8E8"/><stop offset="0.625" stop-color="#E7E7E7"/><stop offset="0.666667" stop-color="#E6E6E6"/><stop offset="0.708333" stop-color="#E4E4E4"/><stop offset="0.75" stop-color="#E3E3E3"/><stop offset="0.791667" stop-color="#E1E1E1"/><stop offset="0.833333" stop-color="#E0E0E0"/><stop offset="0.875" stop-color="#DEDEDE"/><stop offset="0.916667" stop-color="#DCDCDC"/><stop offset="0.958333" stop-color="#DADADA"/><stop offset="1" stop-color="#D9D9D9"/></linearGradient><linearGradient x1="615.5" y1="166" x2="615.5" y2="42" gradientUnits="userSpaceOnUse" spreadMethod="reflect" id="fill9"><stop offset="0" stop-color="#F2F2F2"/><stop offset="0.0416667" stop-color="#F1F1F1"/><stop offset="0.0833333" stop-color="#F1F1F1"/><stop offset="0.125" stop-color="#F1F1F1"/><stop offset="0.166667" stop-color="#F1F1F1"/><stop offset="0.208333" stop-color="#F0F0F0"/><stop offset="0.25" stop-color="#F0F0F0"/><stop offset="0.291667" stop-color="#EFEFEF"/><stop offset="0.333333" stop-color="#EEEEEE"/><stop offset="0.375" stop-color="#EEEEEE"/><stop offset="0.416667" stop-color="#EDEDED"/><stop offset="0.458333" stop-color="#ECECEC"/><stop offset="0.5" stop-color="#EBEBEB"/><stop offset="0.541667" stop-color="#EAEAEA"/><stop offset="0.583333" stop-color="#E8E8E8"/><stop offset="0.625" stop-color="#E7E7E7"/><stop offset="0.666667" stop-color="#E6E6E6"/><stop offset="0.708333" stop-color="#E4E4E4"/><stop offset="0.75" stop-color="#E3E3E3"/><stop offset="0.791667" stop-color="#E1E1E1"/><stop offset="0.833333" stop-color="#E0E0E0"/><stop offset="0.875" stop-color="#DEDEDE"/><stop offset="0.916667" stop-color="#DCDCDC"/><stop offset="0.958333" stop-color="#DADADA"/><stop offset="1" stop-color="#D9D9D9"/></linearGradient><linearGradient x1="747.5" y1="690" x2="747.5" y2="191" gradientUnits="userSpaceOnUse" spreadMethod="reflect" id="fill10"><stop offset="0" stop-color="#F2F2F2"/><stop offset="0.0416667" stop-color="#F1F1F1"/><stop offset="0.0833333" stop-color="#F1F1F1"/><stop offset="0.125" stop-color="#F1F1F1"/><stop offset="0.166667" stop-color="#F1F1F1"/><stop offset="0.208333" stop-color="#F0F0F0"/><stop offset="0.25" stop-color="#F0F0F0"/><stop offset="0.291667" stop-color="#EFEFEF"/><stop offset="0.333333" stop-color="#EEEEEE"/><stop offset="0.375" stop-color="#EEEEEE"/><stop offset="0.416667" stop-color="#EDEDED"/><stop offset="0.458333" stop-color="#ECECEC"/><stop offset="0.5" stop-color="#EBEBEB"/><stop offset="0.541667" stop-color="#EAEAEA"/><stop offset="0.583333" stop-color="#E8E8E8"/><stop offset="0.625" stop-color="#E7E7E7"/><stop offset="0.666667" stop-color="#E6E6E6"/><stop offset="0.708333" stop-color="#E4E4E4"/><stop offset="0.75" stop-color="#E3E3E3"/><stop offset="0.791667" stop-color="#E1E1E1"/><stop offset="0.833333" stop-color="#E0E0E0"/><stop offset="0.875" stop-color="#DEDEDE"/><stop offset="0.916667" stop-color="#DCDCDC"/><stop offset="0.958333" stop-color="#DADADA"/><stop offset="1" stop-color="#D9D9D9"/></linearGradient><linearGradient x1="131" y1="690" x2="131" y2="35" gradientUnits="userSpaceOnUse" spreadMethod="reflect" id="fill11"><stop offset="0" stop-color="#DAE3F3"/><stop offset="0.027027" stop-color="#D9E2F2"/><stop offset="0.0540541" stop-color="#D9E2F2"/><stop offset="0.0810811" stop-color="#D9E2F2"/><stop offset="0.108108" stop-color="#D9E2F2"/><stop offset="0.135135" stop-color="#D9E2F2"/><stop offset="0.162162" stop-color="#D8E2F2"/><stop offset="0.189189" stop-color="#D8E1F2"/><stop offset="0.216216" stop-color="#D7E1F2"/><stop offset="0.243243" stop-color="#D7E1F2"/><stop offset="0.27027" stop-color="#D6E0F1"/><stop offset="0.297297" stop-color="#D6E0F1"/><stop offset="0.324324" stop-color="#D5DFF1"/><stop offset="0.351351" stop-color="#D4DFF1"/><stop offset="0.378378" stop-color="#D3DEF1"/><stop offset="0.405405" stop-color="#D3DDF0"/><stop offset="0.432432" stop-color="#D2DDF0"/><stop offset="0.459459" stop-color="#D1DCF0"/><stop offset="0.486486" stop-color="#D0DBEF"/><stop offset="0.513514" stop-color="#CFDAEF"/><stop offset="0.540541" stop-color="#CEDAEF"/><stop offset="0.567568" stop-color="#CCD9EE"/><stop offset="0.594595" stop-color="#CBD8EE"/><stop offset="0.621622" stop-color="#CAD7EE"/><stop offset="0.648649" stop-color="#C9D6ED"/><stop offset="0.675676" stop-color="#C7D5ED"/><stop offset="0.702703" stop-color="#C6D4EC"/><stop offset="0.72973" stop-color="#C4D3EC"/><stop offset="0.756757" stop-color="#C3D2EB"/><stop offset="0.783784" stop-color="#C1D1EB"/><stop offset="0.810811" stop-color="#C0D0EA"/><stop offset="0.837838" stop-color="#BECEEA"/><stop offset="0.864865" stop-color="#BDCDE9"/><stop offset="0.891892" stop-color="#BBCCE9"/><stop offset="0.918919" stop-color="#B9CBE8"/><stop offset="0.945946" stop-color="#B7C9E8"/><stop offset="0.972973" stop-color="#B5C8E7"/><stop offset="1" stop-color="#B4C7E7"/></linearGradient></defs><g><rect x="0" y="0" width="1280" height="720" fill="#F2F2F2"/><g filter="url(#fx0)" transform="translate(257 35)"><g><path d="M21.1422 41.8093C21.1422 30.3951 30.3951 21.1421 41.8093 21.1421L199.475 21.1421C210.889 21.1421 220.142 30.3951 220.142 41.8093L220.142 124.475C220.142 135.889 210.889 145.142 199.475 145.142L41.8093 145.142C30.3951 145.142 21.1422 135.889 21.1422 124.475Z" fill="#FF0000" fill-rule="evenodd"/></g></g><path d="M264 62.6672C264 51.253 273.253 42 284.667 42L442.333 42C453.747 42 463 51.253 463 62.6672L463 145.333C463 156.747 453.747 166 442.333 166L284.667 166C273.253 166 264 156.747 264 145.333Z" fill="url(#fill6)" fill-rule="evenodd"/><g filter="url(#fx1)" transform="translate(1012 35)"><g><path d="M21.1421 41.8093C21.1421 30.3951 30.3951 21.1421 41.8092 21.1421L199.475 21.1421C210.889 21.1421 220.142 30.3951 220.142 41.8093L220.142 124.475C220.142 135.889 210.889 145.142 199.475 145.142L41.8092 145.142C30.3951 145.142 21.1421 135.889 21.1421 124.475Z" fill="#FF0000" fill-rule="evenodd"/></g></g><path d="M1019 62.6672C1019 51.253 1028.25 42 1039.67 42L1197.33 42C1208.75 42 1218 51.253 1218 62.6672L1218 145.333C1218 156.747 1208.75 166 1197.33 166L1039.67 166C1028.25 166 1019 156.747 1019 145.333Z" fill="url(#fill7)" fill-rule="evenodd"/><g filter="url(#fx2)" transform="translate(760 35)"><g><path d="M21.1422 41.8093C21.1422 30.3951 30.3951 21.1421 41.8093 21.1421L199.475 21.1421C210.889 21.1421 220.142 30.3951 220.142 41.8093L220.142 124.475C220.142 135.889 210.889 145.142 199.475 145.142L41.8093 145.142C30.3951 145.142 21.1422 135.889 21.1422 124.475Z" fill="#FF0000" fill-rule="evenodd"/></g></g><path d="M767 62.6672C767 51.253 776.253 42 787.667 42L945.333 42C956.747 42 966 51.253 966 62.6672L966 145.333C966 156.747 956.747 166 945.333 166L787.667 166C776.253 166 767 156.747 767 145.333Z" fill="url(#fill8)" fill-rule="evenodd"/><g filter="url(#fx3)" transform="translate(509 35)"><g><path d="M21.1422 41.8093C21.1422 30.3951 30.3951 21.1421 41.8093 21.1421L199.475 21.1421C210.889 21.1421 220.142 30.3951 220.142 41.8093L220.142 124.475C220.142 135.889 210.889 145.142 199.475 145.142L41.8093 145.142C30.3951 145.142 21.1422 135.889 21.1422 124.475Z" fill="#FF0000" fill-rule="evenodd"/></g></g><path d="M516 62.6672C516 51.253 525.253 42 536.667 42L694.333 42C705.747 42 715 51.253 715 62.6672L715 145.333C715 156.747 705.747 166 694.333 166L536.667 166C525.253 166 516 156.747 516 145.333Z" fill="url(#fill9)" fill-rule="evenodd"/><g filter="url(#fx4)" transform="translate(257 184)"><g><path d="M21.1422 59.7947C21.1422 38.4475 38.4475 21.1421 59.7947 21.1421L949.49 21.1421C970.837 21.1421 988.142 38.4475 988.142 59.7947L988.142 481.49C988.142 502.837 970.837 520.142 949.49 520.142L59.7947 520.142C38.4475 520.142 21.1422 502.837 21.1422 481.49Z" fill="#FF0000" fill-rule="evenodd"/></g></g><path d="M264 229.653C264 208.305 281.305 191 302.652 191L1192.35 191C1213.69 191 1231 208.305 1231 229.653L1231 651.347C1231 672.695 1213.69 690 1192.35 690L302.652 690C281.305 690 264 672.695 264 651.347Z" fill="url(#fill10)" fill-rule="evenodd"/><g filter="url(#fx5)" transform="translate(6 28)"><g><path d="M21.1421 39.4225C21.1421 29.3265 29.3266 21.1421 39.4225 21.1421L238.862 21.1421C248.958 21.1421 257.142 29.3265 257.142 39.4225L257.142 657.862C257.142 667.958 248.958 676.142 238.862 676.142L39.4225 676.142C29.3266 676.142 21.1421 667.958 21.1421 657.862Z" fill="#FF0000" fill-rule="evenodd"/></g></g><path d="M13 53.2804C13 43.1844 21.1844 35 31.2804 35L230.72 35C240.816 35 249 43.1844 249 53.2804L249 671.72C249 681.816 240.816 690 230.72 690L31.2804 690C21.1844 690 13 681.816 13 671.72Z" fill="url(#fill11)" fill-rule="evenodd"/></g></svg>